<?xml version="1.0" encoding="UTF-8" standalone="no"?>
<svg
   xmlns:dc="http://purl.org/dc/elements/1.1/"
   xmlns:cc="http://creativecommons.org/ns#"
   xmlns:rdf="http://www.w3.org/1999/02/22-rdf-syntax-ns#"
   xmlns:svg="http://www.w3.org/2000/svg"
   xmlns="http://www.w3.org/2000/svg"
   xmlns:sodipodi="http://sodipodi.sourceforge.net/DTD/sodipodi-0.dtd"
   xmlns:inkscape="http://www.inkscape.org/namespaces/inkscape"
   width="19.199608pt"
   height="19.199608pt"
   viewBox="0 0 19.199608 19.199608"
   version="1.1"
   id="svg2"
   inkscape:version="0.91 r13725"
   sodipodi:docname="gb.svg">
  <metadata
     id="metadata19">
    <rdf:RDF>
      <cc:Work
         rdf:about="">
        <dc:format>image/svg+xml</dc:format>
        <dc:type
           rdf:resource="http://purl.org/dc/dcmitype/StillImage" />
        <dc:title></dc:title>
      </cc:Work>
    </rdf:RDF>
  </metadata>
  <defs
     id="defs17" />
  <sodipodi:namedview
     pagecolor="#ffffff"
     bordercolor="#666666"
     borderopacity="1"
     objecttolerance="10"
     gridtolerance="10"
     guidetolerance="10"
     inkscape:pageopacity="0"
     inkscape:pageshadow="2"
     inkscape:window-width="1301"
     inkscape:window-height="744"
     id="namedview15"
     showgrid="false"
     fit-margin-top="0"
     fit-margin-left="0"
     fit-margin-right="0"
     fit-margin-bottom="0"
     inkscape:zoom="15.733333"
     inkscape:cx="20.561125"
     inkscape:cy="12.362291"
     inkscape:window-x="65"
     inkscape:window-y="24"
     inkscape:window-maximized="1"
     inkscape:current-layer="surface1" />
  <g
     id="surface1"
     transform="scale(0.04999898,0.04999898)">
    <rect
       x="0"
       y="0"
       width="384"
       height="384"
       style="fill:#000066;fill-opacity:1;stroke:none"
       id="rect5" />
    <path
       style="fill:#ffffff;fill-opacity:1;fill-rule:nonzero;stroke:none"
       d="m -192,0 0,42.933594 682.15234,341.074216 85.86328,0 0,-42.92969 L -106.13672,0 Z m 768.01562,0 0,42.933594 -682.15234,341.074216 -85.86328,0 0,-42.93359 L 490.15234,0 Z m 0,0"
       id="path7"
       inkscape:connector-curvature="0" />
    <path
       style="fill:#ffffff;fill-opacity:1;fill-rule:nonzero;stroke:none"
       d="m 128.00781,0 0,384.00781 128,0 0,-384.00781 z M -192,128.00391 l 0,128 768.01562,0 0,-128 z m 0,0"
       id="path9"
       inkscape:connector-curvature="0" />
    <path
       style="fill:#cc0000;fill-opacity:1;fill-rule:nonzero;stroke:none"
       d="m -192,153.60156 0,76.80469 768.01562,0 0,-76.80469 z M 153.60547,0 l 0,384.00781 76.80469,0 0,-384.00781 z m 0,0"
       id="path11"
       inkscape:connector-curvature="0" />
    <path
       style="fill:#cc0000;fill-opacity:1;fill-rule:nonzero;stroke:none"
       d="m -192,384.00781 256.003906,-128.0039 57.242184,0 -256.0039,128.0039 z M -192,0 64.003906,128.00391 l -57.242187,0 L -192,28.621094 Z M 262.76562,128.00391 518.77344,0 576.01562,0 320.01172,128.00391 Z m 313.25,256.0039 -256.0039,-128.0039 57.24219,0 198.76171,99.38281 z m 0,0"
       id="path13"
       inkscape:connector-curvature="0" />
  </g>
</svg>
